<svg width="39" height="39" viewBox="0 0 39 39" fill="none" xmlns="http://www.w3.org/2000/svg">
<g clip-path="url(#clip0_308_1748)">
<path d="M11.7092 19.7776C11.6852 19.7776 11.661 19.7768 11.6367 19.7754L1.16281 19.1214C0.966837 19.1092 0.777153 19.0475 0.611515 18.9421C0.445876 18.8367 0.3097 18.6909 0.215733 18.5185C0.121766 18.3461 0.0730822 18.1527 0.0742389 17.9563C0.0753956 17.76 0.126355 17.5672 0.222347 17.3959C0.277183 17.2978 1.59726 14.9702 4.1111 12.9403C7.50819 10.1974 11.4573 9.30778 15.5312 10.3678C15.6981 10.4113 15.8533 10.4914 15.9853 10.6023C16.1174 10.7133 16.2231 10.8523 16.2947 11.0092C16.3663 11.1661 16.402 11.337 16.3993 11.5095C16.3966 11.6819 16.3555 11.8516 16.2789 12.0062L12.7492 19.1321C12.6532 19.3259 12.5049 19.489 12.3212 19.603C12.1374 19.7171 11.9255 19.7775 11.7092 19.7776Z" fill="#FF5B5B"/>
<path d="M20.1527 38.0441C19.8574 38.0441 19.5732 37.9315 19.358 37.7293C19.1428 37.5271 19.0127 37.2504 18.9943 36.9557L18.3406 26.4818C18.3264 26.2536 18.3798 26.0263 18.4943 25.8284C18.6087 25.6305 18.779 25.4708 18.9838 25.3693L26.1097 21.8392C26.2643 21.7627 26.434 21.7216 26.6065 21.7189C26.779 21.7162 26.9499 21.752 27.1068 21.8236C27.2637 21.8952 27.4028 22.0009 27.5137 22.133C27.6247 22.2651 27.7048 22.4203 27.7481 22.5873C28.8085 26.6612 27.9188 30.6103 25.1758 34.0074C23.146 36.5212 20.8182 37.841 20.7201 37.8961C20.5467 37.9932 20.3514 38.0442 20.1527 38.0441Z" fill="#FF193D"/>
<path d="M36.256 9.36799L28.7514 1.86332C28.6037 1.71573 28.419 1.61068 28.2167 1.55924C28.0144 1.50779 27.8019 1.51186 27.6017 1.57101C22.5778 3.05708 18.4537 5.38776 15.3431 8.49812C14.6944 9.14708 14.0712 9.85037 13.4913 10.5881C11.8049 12.7322 10.3964 15.2673 9.30498 18.123C8.60987 19.9432 8.0439 21.8931 7.62275 23.9184C6.88722 27.4562 6.84776 29.9919 6.84628 30.0981C6.84442 30.2529 6.87353 30.4066 6.93191 30.55C6.99029 30.6934 7.07675 30.8236 7.18621 30.9331C7.40395 31.1508 7.6992 31.273 8.00705 31.273H8.02124C8.12779 31.2719 10.6634 31.2324 14.2009 30.4969C16.2263 30.0758 18.1762 29.5098 19.9966 28.8143C22.8521 27.723 25.3871 26.3147 27.5306 24.6286C28.269 24.0485 28.9723 23.4253 29.6212 22.7762C32.7319 19.6657 35.0625 15.5416 36.5483 10.5176C36.6076 10.3174 36.6117 10.105 36.5602 9.90262C36.5088 9.70029 36.4037 9.51559 36.256 9.36799Z" fill="#E1F1FA"/>
<path d="M14.9938 28.7477L9.37098 23.125C8.95592 22.71 8.29618 22.6702 7.83416 23.0325C7.47807 23.3114 7.13903 23.6115 6.81887 23.9311C2.90656 27.8433 2.78552 33.9052 2.78232 34.1612C2.78031 34.3161 2.80935 34.4698 2.86774 34.6133C2.92613 34.7567 3.01267 34.887 3.12226 34.9965C3.22995 35.1043 3.35784 35.1899 3.49862 35.2483C3.63941 35.3066 3.79032 35.3367 3.94272 35.3367C3.9477 35.3367 3.95261 35.3367 3.95759 35.3364C4.21356 35.3332 10.2757 35.2122 14.1877 31.2999C14.5073 30.9797 14.8073 30.6407 15.0863 30.2846C15.4485 29.8226 15.4088 29.1628 14.9938 28.7477Z" fill="#FFF261"/>
<path d="M9.39475 17.8906L5.94513 21.3405C5.8373 21.4482 5.75175 21.5761 5.69339 21.7169C5.63502 21.8577 5.60498 22.0086 5.60498 22.161C5.60498 22.3134 5.63502 22.4644 5.69339 22.6051C5.75175 22.7459 5.8373 22.8738 5.94513 22.9815L15.1376 32.174C15.3549 32.3917 15.6502 32.5139 15.9581 32.5139C16.2661 32.5139 16.561 32.3917 16.7787 32.174L20.2282 28.7244L9.39475 17.8906Z" fill="#1B3B6B"/>
<path d="M24.4536 17.2061C23.5079 17.2061 22.6186 16.8379 21.9499 16.1692C20.5694 14.7887 20.5694 12.5428 21.9499 11.1621C22.6186 10.4933 23.5079 10.125 24.4536 10.125C25.3992 10.125 26.2885 10.4933 26.9573 11.1621C27.626 11.8308 27.9943 12.7198 27.9943 13.6657C27.9943 14.6114 27.626 15.5004 26.9573 16.1692C26.2885 16.8379 25.3992 17.2061 24.4536 17.2061Z" fill="#06CCAB"/>
<path d="M24.4531 18.3395C23.2041 18.3395 22.03 17.8531 21.1471 16.9701C19.324 15.1471 19.324 12.1807 21.1471 10.3577C22.03 9.47475 23.2044 8.98828 24.4531 8.98828C25.702 8.98828 26.876 9.47475 27.7593 10.3577C28.6424 11.2409 29.1287 12.415 29.1287 13.6639C29.1287 14.9128 28.6424 16.087 27.7593 16.9701C26.876 17.8531 25.702 18.3395 24.4531 18.3395ZM24.4531 11.3095C23.8244 11.3095 23.2328 11.5544 22.7881 11.9991C21.8704 12.9172 21.8704 14.4107 22.7881 15.3288C23.2328 15.7735 23.8244 16.0184 24.4531 16.0184C25.082 16.0184 25.6733 15.7735 26.1179 15.3288C26.5625 14.8842 26.8075 14.2929 26.8075 13.6639C26.8075 13.0349 26.5625 12.4437 26.1179 11.9991C25.6733 11.5544 25.082 11.3095 24.4531 11.3095Z" fill="#1B3B6B"/>
<path d="M37.778 0.340079C37.5565 0.118654 37.2535 -0.00587932 36.9424 0.000213577C36.7702 0.00221978 32.6675 0.0713222 27.6016 1.56958L36.5482 10.5162C38.0464 5.45017 38.1155 1.34756 38.1175 1.17547C38.1196 1.02061 38.0906 0.866909 38.0322 0.723433C37.9739 0.579956 37.8875 0.449609 37.778 0.340079Z" fill="#FF5B5B"/>
<path d="M36.2559 9.36562L32.5035 5.61328L7.18604 30.9308C7.29379 31.0385 7.42171 31.124 7.5625 31.1823C7.70329 31.2406 7.85418 31.2706 8.00657 31.2706H8.02106C8.12731 31.2695 10.6629 31.23 14.2007 30.4945C16.2261 30.0734 18.1757 29.5074 19.9961 28.8119C22.8519 27.7206 25.3869 26.3123 27.5305 24.6263C28.2685 24.0461 28.9721 23.4229 29.6208 22.7739C32.7314 19.6633 35.0621 15.5392 36.5479 10.5152C36.6072 10.3151 36.6114 10.1026 36.56 9.90026C36.5086 9.69791 36.4035 9.5132 36.2559 9.36562Z" fill="#CDEBFC"/>
<path d="M14.9939 28.7449L12.1824 25.9336L3.12207 34.9937V34.994C3.33983 35.2116 3.63506 35.3338 3.9429 35.3339H3.95739C4.21367 35.3307 10.2755 35.2094 14.1877 31.2971C14.5073 30.977 14.8073 30.6379 15.0861 30.2818C15.4487 29.8198 15.4092 29.16 14.9939 28.7449Z" fill="#FDBF00"/>
<path d="M14.8115 23.3047L10.541 27.5751L15.1374 32.1716C15.3551 32.3891 15.6502 32.5114 15.958 32.5114C16.2657 32.5114 16.5609 32.3891 16.7785 32.1716L20.2281 28.7216L14.8115 23.3047Z" fill="#001035"/>
<path d="M26.9571 11.1602H26.9568L21.9497 16.1673H21.95C22.6184 16.836 23.5078 17.2043 24.4534 17.2043C25.399 17.2043 26.2884 16.836 26.9571 16.1673C27.6258 15.4985 27.9942 14.6095 27.9942 13.6638C27.9939 12.7182 27.6258 11.8289 26.9571 11.1602Z" fill="#1CADB5"/>
<path d="M27.7595 10.3594L26.1181 12.0007C26.5627 12.4454 26.8077 13.0366 26.8077 13.6656C26.8077 14.2946 26.5627 14.8858 26.1181 15.3305C25.6735 15.7752 25.0822 16.0201 24.4533 16.0201C23.8243 16.0201 23.233 15.7751 22.7883 15.3305V15.3302L21.147 16.9716V16.9718C22.0302 17.8548 23.2043 18.3412 24.4533 18.3412C25.7022 18.3412 26.8762 17.8548 27.7595 16.9718C28.6424 16.0886 29.1289 14.9146 29.1289 13.6656C29.1289 12.4166 28.6424 11.2426 27.7595 10.3594Z" fill="#001035"/>
<path d="M37.7775 0.339844L32.0747 6.04295L36.548 10.5163C38.0463 5.45023 38.1154 1.34762 38.1174 1.17554C38.1194 1.0206 38.0904 0.866837 38.032 0.723307C37.9736 0.579777 37.8871 0.449392 37.7775 0.339844Z" fill="#FF193D"/>
</g>
<defs>
<clipPath id="clip0_308_1748">
<rect width="38.0435" height="38.0435" fill="white"/>
</clipPath>
</defs>
</svg>
